<svg width="66" height="65" viewBox="0 0 66 65" fill="none" xmlns="http://www.w3.org/2000/svg">
<path d="M27.6432 2.66458C30.7139 -0.00930882 35.2861 -0.00930858 38.3568 2.66458C40.1516 4.22742 42.5393 4.92854 44.8941 4.58412C48.923 3.99484 52.7694 6.46677 53.907 10.3763C54.5719 12.6614 56.2016 14.5421 58.3688 15.5255C62.0766 17.2079 63.976 21.367 62.8194 25.2709C62.1433 27.5527 62.4975 30.016 63.789 32.0149C65.9987 35.4349 65.348 39.9606 62.2643 42.6195C60.4619 44.1735 59.4281 46.4372 59.4339 48.8171C59.4439 52.8888 56.4497 56.3442 52.418 56.9139C50.0616 57.2468 47.9681 58.5923 46.6863 60.5974C44.4933 64.0281 40.1063 65.3163 36.4067 63.6158C34.2443 62.6219 31.7557 62.6219 29.5933 63.6158C25.8937 65.3163 21.5067 64.0281 19.3137 60.5974C18.0319 58.5923 15.9384 57.2468 13.582 56.9139C9.55031 56.3442 6.55615 52.8888 6.56606 48.8171C6.57186 46.4372 5.53806 44.1735 3.7357 42.6195C0.652027 39.9606 0.00133204 35.4349 2.211 32.0149C3.50251 30.016 3.85668 27.5527 3.18064 25.2709C2.02399 21.367 3.92336 17.2079 7.63123 15.5255C9.79841 14.5421 11.4281 12.6614 12.093 10.3763C13.2306 6.46677 17.077 3.99484 21.1059 4.58412C23.4607 4.92854 25.8484 4.22742 27.6432 2.66458Z" fill="#FD4D35"/>
</svg>
